<svg id="Layer_1" version="1.1" viewBox="0 0 32 32" xml:space="preserve" xmlns="http://www.w3.org/2000/svg" enable-background="new 0 0 32 32"><path d="M16 19a1 1 0 0 1-1-1V4a1 1 0 1 1 2 0v14a1 1 0 0 1-1 1zM16 29a1 1 0 0 1-1-1v-7.072a1 1 0 1 1 2 0V28a1 1 0 0 1-1 1zM6 13a1 1 0 0 1-1-1V4a1 1 0 1 1 2 0v8a1 1 0 0 1-1 1zM6 29a1 1 0 0 1-1-1V14.898a1 1 0 1 1 2 0V28a1 1 0 0 1-1 1zM26 10a1 1 0 0 1-1-1V4a1 1 0 1 1 2 0v5a1 1 0 0 1-1 1zM26 29a1 1 0 0 1-1-1V12a1 1 0 1 1 2 0v16a1 1 0 0 1-1 1z" fill="#5068a9" class="fill-000000"></path><path d="M29 10h-6a1 1 0 1 1 0-2h6a1 1 0 1 1 0 2zM19 19h-6a1 1 0 1 1 0-2h6a1 1 0 1 1 0 2zM9 13H3a1 1 0 1 1 0-2h6a1 1 0 1 1 0 2z" fill="#5068a9" class="fill-000000"></path></svg>