<svg viewBox="0 0 100.4 100.4" xml:space="preserve" xmlns="http://www.w3.org/2000/svg" enable-background="new 0 0 100.4 100.4"><path d="m76.9 23.1 1.1-4.2h4.8c.9 0 1.6-.7 1.6-1.6v-7c0-.9-.7-1.6-1.6-1.6H17.5c-.9 0-1.6.7-1.6 1.6v7c0 .9.7 1.6 1.6 1.6h4.8l1.1 4.2C26.2 34.7 34.5 43.9 45.7 48v3.8c-11.1 4.1-19.4 13.3-22.3 24.9L22 81.9h-4.5c-.9 0-1.6.7-1.6 1.6v7c0 .9.7 1.6 1.6 1.6h65.3c.9 0 1.6-.7 1.6-1.6v-7c0-.9-.7-1.6-1.6-1.6h-4.5L77 76.6c-3-11.5-11.3-20.7-22.4-24.8V48C65.7 43.9 74 34.7 76.9 23.1zM19.1 11.9h62v3.7h-62v-3.7zm62.1 77h-62v-3.7h62v3.7zM52.6 54.3C63.3 57.8 71.3 66.5 74 77.4l1.1 4.5h-50l1.1-4.5C29 66.5 37 57.8 47.6 54.3c.6-.2 1-.8 1-1.4V47c0-.6-.4-1.2-1-1.4C37 41.9 29 33.3 26.3 22.4l-.9-3.5h49.5l-.9 3.5c-2.7 10.9-10.7 19.5-21.4 23.1-.6.2-1 .8-1 1.4v5.9c0 .7.4 1.3 1 1.5z" fill="#5068a9" class="fill-000000"></path></svg>