<svg viewBox="0 0 60 60" xml:space="preserve" xmlns="http://www.w3.org/2000/svg" enable-background="new 0 0 60 60"><path d="M8 16h15a1 1 0 1 0 0-2H8a1 1 0 1 0 0 2zM8 13h9a1 1 0 1 0 0-2H8a1 1 0 1 0 0 2zM24 18a1 1 0 0 0-1-1H8a1 1 0 1 0 0 2h15a1 1 0 0 0 1-1z" fill="#5068a9" class="fill-000000"></path><path d="M60 4H31V1a1 1 0 1 0-2 0v3H0v42h27.586L15.293 58.293a.999.999 0 1 0 1.414 1.414L29 47.414V57a1 1 0 1 0 2 0v-9.586l12.293 12.293a.997.997 0 0 0 1.414 0 .999.999 0 0 0 0-1.414L32.414 46H60V4zm-2 40H2V6h56v38z" fill="#5068a9" class="fill-000000"></path><path d="M41 20h4.586L33.6 31.986l-8.293-8.293a.999.999 0 0 0-1.414 0l-12.6 12.6a.999.999 0 1 0 1.414 1.414L24.6 25.814l8.293 8.293a.997.997 0 0 0 1.414 0L47 21.414V26a1 1 0 1 0 2 0v-7a.996.996 0 0 0-1-1h-7a1 1 0 1 0 0 2z" fill="#5068a9" class="fill-000000"></path></svg>